<svg width="122" height="36" viewBox="0 0 122 36" fill="none" xmlns="http://www.w3.org/2000/svg">
<path d="M85.61 29.4562C85.5937 29.4994 85.5773 29.544 85.5579 29.5887C85.0936 30.7303 84.455 31.7156 83.6439 32.5402C82.8327 33.3677 81.8637 34.0048 80.7326 34.4632C79.6014 34.9201 78.3735 35.1523 77.0473 35.1523C75.7211 35.1523 74.4917 34.9216 73.362 34.4632C72.2338 34.0063 71.2604 33.3677 70.4522 32.5402C69.6396 31.7156 69.001 30.7303 68.5352 29.5887C68.5158 29.544 68.498 29.4994 68.4831 29.4562H71.8454C72.0567 29.8253 72.3068 30.1692 72.5896 30.4832C73.1298 31.0801 73.7743 31.5504 74.523 31.8942C75.2716 32.2351 76.1156 32.4077 77.0488 32.4077C77.982 32.4077 78.8244 32.2351 79.5746 31.8942C80.3218 31.5504 80.9677 31.0801 81.508 30.4832C81.7923 30.1692 82.0409 29.8268 82.2522 29.4562H85.613H85.61ZM85.5594 14.8566C85.0921 13.7135 84.4536 12.7296 83.6439 11.9036C82.8327 11.079 81.8623 10.4375 80.7311 9.97908C79.6014 9.52363 78.3735 9.29293 77.0473 9.29293C75.7211 9.29293 74.4917 9.52215 73.362 9.97908C72.2323 10.436 71.2604 11.079 70.4507 11.9036C69.6396 12.7296 68.9995 13.7135 68.5352 14.8566C68.0678 15.9982 67.8356 17.2692 67.8356 18.6654C67.8356 20.0615 68.0678 21.3311 68.5352 22.4742C69.001 23.6173 69.6396 24.6011 70.4507 25.4271C71.2604 26.2517 72.2309 26.8917 73.362 27.3501C74.4917 27.8071 75.7211 28.0363 77.0473 28.0363C78.3735 28.0363 79.6014 27.8086 80.7311 27.3501C81.1657 27.173 81.578 26.9706 81.965 26.7399L80.6388 24.1531C80.3099 24.3957 79.9556 24.6041 79.5701 24.7797C78.8215 25.122 77.979 25.2947 77.0473 25.2947C76.1156 25.2947 75.2716 25.122 74.5215 24.7797C73.7713 24.4374 73.1269 23.9685 72.5881 23.3702C72.0463 22.7733 71.6355 22.0753 71.3527 21.276C71.0699 20.4767 70.9285 19.6075 70.9285 18.6683C70.9285 17.7292 71.0699 16.8584 71.3527 16.0592C71.6355 15.2599 72.0463 14.5619 72.5881 13.965C73.1269 13.3682 73.7728 12.8978 74.5215 12.5555C75.2702 12.2132 76.1126 12.042 77.0473 12.042C77.982 12.042 78.8215 12.2132 79.5701 12.5555C80.3188 12.8978 80.9648 13.3682 81.505 13.965C82.0453 14.5633 82.4561 15.2614 82.7389 16.0592C83.0217 16.8599 83.1631 17.7292 83.1631 18.6683C83.1631 19.6075 83.0217 20.4782 82.7389 21.276C82.6675 21.4799 82.5856 21.6794 82.4963 21.8714L85.0951 23.458C85.2662 23.1454 85.4195 22.8195 85.5594 22.4771C86.0253 21.3341 86.259 20.0645 86.259 18.6683C86.259 17.2722 86.0253 16.0011 85.5594 14.8595V14.8566ZM-0.0292969 0.509912V27.4737H2.87308V0.509912H-0.0292969ZM10.7631 10.0535V27.4752H7.8592V10.0535H10.7631ZM18.7111 5.87111C18.7498 5.22515 18.8718 4.67444 19.0847 4.21453C19.2946 3.7561 19.6101 3.39442 20.0328 3.13544C20.4555 2.87348 21.039 2.74399 21.7832 2.74399C22.4038 2.74399 23.0602 2.86902 23.7553 3.11758L24.1646 0.511399C23.8922 0.362559 23.5439 0.25093 23.1227 0.17651C22.7 0.10209 22.3056 0.0648804 21.932 0.0648804C20.7651 0.0648804 19.7842 0.244977 18.9909 0.605169C18.1976 0.963872 17.5576 1.46695 17.0754 2.11142C16.5901 2.75739 16.2493 3.52094 16.0498 4.40058C15.8519 5.28171 15.7537 6.25661 15.7537 7.32379V27.4737H18.656V13.6897H22.8994V11.2338H18.656V7.95784C18.656 7.21364 18.6754 6.51856 18.7111 5.8726V5.87111ZM40.7796 18.7264C40.7796 17.2871 40.5801 16.0011 40.1827 14.8729C39.7868 13.7447 39.2227 12.7877 38.4904 12.0063C37.7566 11.2234 36.8829 10.6295 35.8649 10.2202C34.8483 9.80941 33.7305 9.6055 32.516 9.6055C31.224 9.6055 30.0333 9.82876 28.9408 10.2753C27.8499 10.7218 26.9062 11.3484 26.1114 12.1551C25.3181 12.9618 24.6974 13.9293 24.2509 15.059C23.8044 16.1887 23.5796 17.4226 23.5796 18.7636C23.5796 20.0287 23.785 21.2194 24.1958 22.3372C24.6052 23.455 25.1871 24.4225 25.9447 25.2396C26.7008 26.0597 27.6266 26.7116 28.7176 27.1939C29.8101 27.6791 31.038 27.9217 32.4043 27.9217C34.0416 27.9217 35.4809 27.6538 36.7222 27.1209C37.962 26.5866 39.1036 25.6489 40.147 24.3108L37.9501 22.5962C37.255 23.4654 36.4736 24.1233 35.6044 24.5698C34.7367 25.0163 33.6695 25.2396 32.4043 25.2396C31.6081 25.2396 30.8773 25.0923 30.2075 24.7931C29.5377 24.4954 28.9542 24.0921 28.4571 23.583C27.9615 23.0755 27.5581 22.4801 27.2485 21.7969C26.9375 21.1138 26.7574 20.4023 26.7083 19.6566H40.7796V18.7264ZM26.7083 17.1993C26.9062 15.7094 27.5016 14.5187 28.4943 13.6271C29.4871 12.7326 30.7909 12.2861 32.4043 12.2861C34.0178 12.2861 35.2829 12.7326 36.2012 13.6271C37.1181 14.5187 37.6018 15.7094 37.6524 17.1993H26.7083ZM57.1221 20.252C56.8245 19.6566 56.4166 19.161 55.8942 18.7636C55.3733 18.3677 54.7645 18.0507 54.0694 17.8155C53.3744 17.5788 52.6421 17.3868 51.8741 17.238C51.301 17.1398 50.7503 17.0147 50.216 16.8644C49.6831 16.7156 49.2113 16.5429 48.802 16.3435C48.3927 16.1455 48.0697 15.9163 47.8345 15.6558C47.5979 15.3939 47.4803 15.0783 47.4803 14.7062C47.4803 14.3088 47.586 13.9561 47.7973 13.6465C48.0072 13.3354 48.2736 13.0824 48.5981 12.8829C48.9196 12.6835 49.2872 12.5361 49.6965 12.4364C50.1058 12.3382 50.5077 12.2861 50.9066 12.2861C51.7743 12.2861 52.5126 12.4796 53.1213 12.8636C53.7286 13.2491 54.2198 13.7522 54.5919 14.3713L57.012 12.7713C56.4166 11.6535 55.5921 10.8468 54.5368 10.3512C53.4815 9.85555 52.3355 9.60699 51.0941 9.60699C50.274 9.60699 49.4807 9.71861 48.7127 9.94187C47.9432 10.1651 47.2481 10.4881 46.6275 10.9093C46.0068 11.332 45.5097 11.8664 45.1391 12.5094C44.7655 13.1553 44.5809 13.8995 44.5809 14.7434C44.5809 15.638 44.7476 16.3688 45.0825 16.9403C45.4174 17.5119 45.8639 17.9762 46.4235 18.3364C46.9817 18.6966 47.6336 18.9883 48.3778 19.2116C49.122 19.4349 49.9034 19.6343 50.7235 19.807C51.1939 19.9067 51.6538 20.0183 52.1003 20.1418C52.5468 20.2684 52.9442 20.4351 53.291 20.6449C53.6378 20.8548 53.9176 21.1108 54.1275 21.407C54.3388 21.7047 54.4445 22.0902 54.4445 22.5605C54.4445 23.0308 54.3329 23.4357 54.1096 23.7706C53.8864 24.1054 53.5887 24.3853 53.2151 24.6085C52.843 24.8318 52.4277 24.9925 51.9678 25.0923C51.5094 25.192 51.0554 25.2426 50.6089 25.2426C49.567 25.2426 48.7038 25.0327 48.0221 24.61C47.3389 24.1873 46.7123 23.6173 46.1422 22.8969L43.8337 24.6844C44.7015 25.9258 45.6764 26.7756 46.7555 27.2355C47.8345 27.694 49.119 27.9247 50.6089 27.9247C51.4767 27.9247 52.328 27.8264 53.1585 27.627C53.9906 27.429 54.7348 27.112 55.3926 26.6789C56.0505 26.2458 56.5789 25.6787 56.9763 24.9836C57.3737 24.29 57.5716 23.4446 57.5716 22.4518C57.5716 21.5826 57.4228 20.8518 57.1251 20.255L57.1221 20.252ZM61.2435 10.052V27.4752H64.1474V10.052H61.2435ZM121.342 20.252C121.046 19.6566 120.636 19.161 120.114 18.7636C119.593 18.3677 118.984 18.0507 118.291 17.8155C117.596 17.5788 116.862 17.3868 116.094 17.238C115.521 17.1398 114.97 17.0147 114.437 16.8644C113.903 16.7156 113.431 16.5429 113.022 16.3435C112.613 16.1455 112.29 15.9163 112.054 15.6558C111.818 15.3939 111.7 15.0783 111.7 14.7062C111.7 14.3088 111.806 13.9561 112.017 13.6465C112.227 13.3354 112.493 13.0824 112.818 12.8829C113.139 12.6835 113.507 12.5361 113.916 12.4364C114.326 12.3367 114.729 12.2861 115.126 12.2861C115.994 12.2861 116.732 12.4796 117.341 12.8636C117.948 13.2491 118.44 13.7522 118.812 14.3713L121.232 12.7713C120.636 11.6535 119.812 10.8468 118.757 10.3512C117.703 9.85555 116.555 9.60699 115.314 9.60699C114.497 9.60699 113.701 9.71861 112.933 9.94187C112.163 10.1651 111.468 10.4881 110.847 10.9093C110.227 11.332 109.731 11.8664 109.359 12.5094C108.987 13.1553 108.801 13.8995 108.801 14.7434C108.801 15.638 108.967 16.3688 109.302 16.9403C109.637 17.5104 110.085 17.9762 110.643 18.3364C111.202 18.6966 111.853 18.9883 112.598 19.2116C113.342 19.4349 114.123 19.6343 114.943 19.807C115.414 19.9067 115.875 20.0183 116.32 20.1418C116.767 20.2684 117.164 20.4351 117.511 20.6449C117.858 20.8548 118.137 21.1108 118.349 21.407C118.559 21.7047 118.664 22.0902 118.664 22.5605C118.664 23.0308 118.553 23.4357 118.329 23.7706C118.106 24.1054 117.809 24.3853 117.436 24.6085C117.063 24.8318 116.648 24.9925 116.188 25.0923C115.729 25.192 115.275 25.2426 114.829 25.2426C113.787 25.2426 112.924 25.0327 112.242 24.61C111.559 24.1873 110.934 23.6173 110.362 22.8969L108.054 24.6844C108.923 25.9258 109.896 26.7756 110.975 27.2355C112.054 27.694 113.339 27.9247 114.829 27.9247C115.698 27.9247 116.548 27.8264 117.378 27.627C118.21 27.429 118.955 27.112 119.614 26.6789C120.27 26.2458 120.799 25.6787 121.195 24.9836C121.592 24.29 121.791 23.4446 121.791 22.4518C121.791 21.5826 121.641 20.8518 121.343 20.255L121.342 20.252ZM86.259 8.89255C85.2424 8.89255 84.4178 9.71713 84.4178 10.7337C84.4178 11.7503 85.2424 12.5763 86.259 12.5763C87.2756 12.5763 88.1016 11.7518 88.1016 10.7337C88.1016 9.71564 87.2756 8.89255 86.259 8.89255ZM62.6962 3.73526C61.6796 3.73526 60.855 4.56132 60.855 5.5779C60.855 6.59447 61.6796 7.41904 62.6962 7.41904C63.7128 7.41904 64.5373 6.59447 64.5373 5.5779C64.5373 4.56132 63.7128 3.73526 62.6962 3.73526ZM9.31039 3.73526C8.29382 3.73526 7.46924 4.56132 7.46924 5.5779C7.46924 6.59447 8.29382 7.41904 9.31039 7.41904C10.327 7.41904 11.153 6.59447 11.153 5.5779C11.153 4.56132 10.327 3.73526 9.31039 3.73526ZM104.813 13.8311C104.553 12.9514 104.148 12.1998 103.603 11.5791C103.059 10.9584 102.369 10.4762 101.537 10.1279C100.705 9.78113 99.72 9.60699 98.5784 9.60699C97.8581 9.60699 97.1883 9.69927 96.5676 9.88531C95.9455 10.0699 95.3873 10.3184 94.8917 10.6295C94.3946 10.9406 93.9674 11.2933 93.6072 11.6893C93.247 12.0881 92.9687 12.496 92.7707 12.9187H92.6963C92.6963 12.5823 92.6903 12.2504 92.6784 11.9259V10.0535H90.0127V13.7358C90.0142 13.8846 90.0157 14.0335 90.0157 14.1853V27.4737H92.9181V18.9869C92.9181 17.9956 93.0237 17.0877 93.2351 16.2705C93.445 15.4504 93.7679 14.7434 94.2026 14.1481C94.6357 13.5512 95.1938 13.0928 95.8785 12.7713C96.5602 12.4483 97.3728 12.2861 98.3165 12.2861C99.6813 12.2861 100.688 12.7088 101.332 13.5512C101.976 14.3952 102.299 15.5487 102.299 17.0132V27.4722H105.202V16.7156C105.202 15.6737 105.072 14.7122 104.812 13.8296L104.813 13.8311Z" fill="#282828"/>
</svg>
